<?xml version="1.0" encoding="UTF-8"?>
<svg width="1200" height="400" viewBox="0 0 1200 400" xmlns="http://www.w3.org/2000/svg">
<rect width="1200" height="400" fill="#0a0814"/>
<rect x="0" y="0" width="6" height="400" fill="#8B5CF6"/>
<rect x="0" y="348" width="1200" height="1" fill="#100c1c"/>

<circle cx="950" cy="180" r="5" fill="#8B5CF6" opacity="0.7"/>
<circle cx="840" cy="100" r="2" fill="#8B5CF6" opacity="0.4"/>
<circle cx="1060" cy="130" r="3" fill="#8B5CF6" opacity="0.4"/>
<circle cx="770" cy="240" r="2" fill="#8B5CF6" opacity="0.3"/>
<circle cx="1110" cy="260" r="2" fill="#8B5CF6" opacity="0.3"/>
<circle cx="880" cy="300" r="1.5" fill="#8B5CF6" opacity="0.3"/>
<circle cx="1010" cy="310" r="1.5" fill="#8B5CF6" opacity="0.3"/>
<circle cx="710" cy="150" r="1.5" fill="#8B5CF6" opacity="0.25"/>
<circle cx="1150" cy="90" r="1" fill="#8B5CF6" opacity="0.25"/>
<line x1="950" y1="180" x2="840" y2="100" stroke="#8B5CF6" stroke-width="0.5" opacity="0.15"/>
<line x1="950" y1="180" x2="1060" y2="130" stroke="#8B5CF6" stroke-width="0.5" opacity="0.15"/>
<line x1="950" y1="180" x2="880" y2="300" stroke="#8B5CF6" stroke-width="0.5" opacity="0.15"/>
<line x1="950" y1="180" x2="1110" y2="260" stroke="#8B5CF6" stroke-width="0.5" opacity="0.15"/>

<text x="60" y="195" font-family="-apple-system,BlinkMacSystemFont,Helvetica Neue,sans-serif" font-size="68" font-weight="700" fill="#ffffff" letter-spacing="-2">UNEX-</text>
<text x="60" y="270" font-family="-apple-system,BlinkMacSystemFont,Helvetica Neue,sans-serif" font-size="68" font-weight="700" fill="#8B5CF6" letter-spacing="-2">PLAINED</text>
<text x="60" y="375" font-family="-apple-system,BlinkMacSystemFont,Helvetica Neue,sans-serif" font-size="16" fill="#100c1c" letter-spacing="4">NEWSANARCHIST.COM</text>
</svg>