<?xml version="1.0" encoding="UTF-8"?>
<svg width="1200" height="400" viewBox="0 0 1200 400" xmlns="http://www.w3.org/2000/svg">
<rect width="1200" height="400" fill="#050f0f"/>
<rect x="0" y="0" width="6" height="400" fill="#0D9488"/>
<rect x="0" y="348" width="1200" height="1" fill="#081818"/>

<rect x="720" y="150" width="60" height="60" fill="none" stroke="#0D9488" stroke-width="1" opacity="0.3"/>
<line x1="780" y1="180" x2="840" y2="180" stroke="#0D9488" stroke-width="1" opacity="0.3"/>
<rect x="840" y="150" width="60" height="60" fill="none" stroke="#0D9488" stroke-width="1" opacity="0.3"/>
<line x1="900" y1="180" x2="960" y2="180" stroke="#0D9488" stroke-width="1" opacity="0.3"/>
<rect x="960" y="150" width="60" height="60" fill="none" stroke="#0D9488" stroke-width="1" opacity="0.3"/>
<line x1="1020" y1="180" x2="1080" y2="180" stroke="#0D9488" stroke-width="1" opacity="0.3"/>
<rect x="1080" y="150" width="60" height="60" fill="none" stroke="#0D9488" stroke-width="1" opacity="0.3"/>
<rect x="748" y="168" width="24" height="24" fill="#0D9488" opacity="0.2"/>
<rect x="868" y="168" width="24" height="24" fill="#0D9488" opacity="0.2"/>
<rect x="988" y="168" width="24" height="24" fill="#0D9488" opacity="0.2"/>
<rect x="1108" y="168" width="24" height="24" fill="#0D9488" opacity="0.2"/>
<rect x="720" y="260" width="420" height="40" fill="none" stroke="#0D9488" stroke-width="0.5" opacity="0.1"/>

<text x="60" y="195" font-family="-apple-system,BlinkMacSystemFont,Helvetica Neue,sans-serif" font-size="55" font-weight="700" fill="#ffffff" letter-spacing="-2">WEB3 &amp;</text>
<text x="60" y="270" font-family="-apple-system,BlinkMacSystemFont,Helvetica Neue,sans-serif" font-size="55" font-weight="700" fill="#0D9488" letter-spacing="-2">BLOCKCHAIN</text>
<text x="60" y="375" font-family="-apple-system,BlinkMacSystemFont,Helvetica Neue,sans-serif" font-size="16" fill="#081818" letter-spacing="4">NEWSANARCHIST.COM</text>
</svg>